<svg height="511pt" viewBox="1 -36 511.99997 511" width="511pt" xmlns="http://www.w3.org/2000/svg"><path d="m458.140625 186.21875v243.289062h-111.554687l.050781-236.121093c.09375-6.285157-7.464844-9.539063-11.964844-5.15625l-27.976563 24.972656c-6.703124 6.527344-17.066406 7.449219-24.816406 2.207031l-63.613281-43.964844c-7.796875-5.273437-12.46875-14.074218-12.46875-23.488281 0-5.644531 3.734375-10.605469 9.15625-12.171875l.222656-.0625c7.957031-2.296875 16.519531-.996094 23.4375 3.554688l39.492188 27.132812c7.820312 5.144532 18.175781 4.085938 24.796875-2.535156l29.632812-29.636719c9.90625-9.902343 23.34375-15.46875 37.351563-15.46875h70.695312c17.953125 0 34.675781 9.117188 44.398438 24.207031 11.09375 17.210938 16.992187 37.253907 16.992187 57.730469v46.539063c0 23.546875-12.121094 45.441406-32.082031 57.9375l-11.746094 7.351562" fill="#f2d1a5"/><path d="m457.921875 243.402344h-111.292969l-.042968 186.109375h111.554687v-186.109375zm0 0" fill="#7d8287"/><path d="m404.835938 119.046875h-.957032c-21.472656 0-38.878906-17.40625-38.878906-38.878906v-30.613281c0-21.472657 17.40625-38.878907 38.878906-38.878907h.957032c21.472656 0 38.878906 17.40625 38.878906 38.878907v30.613281c0 21.472656-17.40625 38.878906-38.878906 38.878906zm0 0" fill="#f2d1a5"/><path d="m484.761719 143.203125c-9.726563-15.085937-26.445313-24.207031-44.398438-24.207031h-70.699219c-14.007812 0-27.441406 5.566406-37.347656 15.472656l-29.636718 29.636719c-3.710938 3.710937-8.597657 5.671875-13.550782 5.773437v48.808594c6.140625 1.132812 12.644532-.675781 17.347656-5.257812l27.972657-24.96875c4.503906-4.382813 12.058593-1.132813 11.96875 5.152343l.207031 49.789063h111.296875v-56.957032 56.957032h43.832031v-42.464844c0-20.476562-5.902344-40.519531-16.992187-57.734375zm0 0" fill="#5ecef4"/><path d="m405.972656 10.675781h-3.214844c-20.847656 0-37.75 16.898438-37.75 37.746094v8.898437c10.621094 2.894532 23.257813 5.175782 30.660157 2.445313 14.53125-5.355469 26.703125-11.339844 38.386719-8.589844 2.371093.558594 5.789062-.78125 9.652343-3.34375-.316406-20.574219-17.085937-37.15625-37.734375-37.15625zm0 0" fill="#9bb9c3"/><path d="m108.878906 173.210938h-.957031c-21.46875 0-38.878906-17.40625-38.878906-38.878907v-30.617187c0-21.472656 17.410156-38.878906 38.878906-38.878906h.957031c21.472656 0 38.878906 17.40625 38.878906 38.878906v30.617187c0 21.472657-17.40625 38.878907-38.878906 38.878907zm0 0" fill="#f2d1a5"/><path d="m10.027344 297.566406v-42.46875c0-20.476562 5.902344-40.519531 16.992187-57.730468 9.726563-15.089844 26.445313-24.207032 44.398438-24.207032h72.988281c17.953125 0 34.675781 9.117188 44.398438 24.207032 11.09375 17.210937 16.992187 37.253906 16.992187 57.730468v42.46875zm0 0" fill="#ff9f22"/><path d="m110.015625 64.835938h-3.214844c-20.847656 0-37.746093 16.898437-37.746093 37.746093v8.898438c10.621093 2.894531 23.253906 5.175781 30.65625 2.449219 14.53125-5.355469 26.703124-11.339844 38.386718-8.589844 2.371094.554687 5.789063-.785156 9.652344-3.347656-.316406-20.574219-17.082031-37.15625-37.734375-37.15625zm0 0" fill="#915041"/><path d="m69.449219 222.957031-18.40625.121094v73.652344h114.71875v-73.652344h-20.09375" fill="#e1e1e6"/><path d="m493.410156 137.398438c-10.929687-16.957032-29.042968-27.488282-49-28.683594 5.859375-8.066406 9.332032-17.980469 9.332032-28.691406v-30.617188c0-.449219-.023438-.894531-.035157-1.34375.007813-.179688.03125-.351562.027344-.53125-.398437-25.933594-21.828125-47.03125-47.761719-47.03125h-3.21875c-26.34375 0-47.777344 21.433594-47.777344 47.777344v.839844c0 .097656-.003906.191406-.003906.289062v30.617188c0 10.769531 3.507813 20.734374 9.425782 28.820312-14.71875 1.265625-28.390626 7.59375-38.957032 18.160156l-29.636718 29.636719c-3.214844 3.21875-8.300782 3.757813-12.121094 1.289063l-39.394532-27.0625c-.054687-.039063-.109374-.078126-.167968-.113282-9.378906-6.167968-20.945313-7.921875-31.734375-4.808594l-.214844.0625c-9.660156 2.785157-16.40625 11.753907-16.40625 21.808594 0 12.742188 6.292969 24.613282 16.835937 31.761719l63.574219 43.941406c.027344.019531.054688.035157.082031.054688 2.570313 1.738281 5.34375 3 8.210938 3.839843.875.460938 1.824219.804688 2.839844.992188 9.410156 1.738281 19.101562-1.167969 25.992187-7.765625l23.113281-20.632813.179688 43.292969-.007812 44.09375h-120.761719v-32.4375c0-22.453125-6.429688-44.292969-18.589844-63.164062-10.917969-16.941407-29.007813-27.46875-48.945313-28.683594 5.964844-8.105469 9.496094-18.105469 9.496094-28.917969v-30.617187c0-.449219-.019531-.894531-.03125-1.339844.003906-.179687.027344-.355469.023438-.539063-.398438-25.929687-21.824219-47.03125-47.761719-47.03125h-3.214844c-26.34375 0-47.777343 21.433594-47.777343 47.777344v.84375c0 .09375-.007813.191406-.007813.289063v30.617187c0 10.792969 3.523437 20.777344 9.46875 28.875-20.3125.933594-38.804687 11.515625-49.894531 28.726563-12.160156 18.867187-18.589844 40.710937-18.589844 63.160156v42.464844c0 5.539062 4.488281 10.03125 10.027344 10.03125h326.554687l-.027343 121.914062c0 .335938.015624.667969.050781.996094.027343.261719.070312.515625.113281.773437.011719.066407.019531.132813.03125.203126.058594.296874.136719.589843.222656.875.003906.023437.007813.046874.015625.070312.089844.292969.195313.578125.308594.855469.007813.023437.015625.046875.023437.066406.109376.269531.234376.527344.367188.78125.019531.035156.035156.074219.054688.109375.125.234375.265624.460938.40625.683594.035156.050781.0625.109375.097656.160156.144531.214844.300781.417969.460937.621094.042969.054687.082031.113281.125.167968.417969.507813.882813.972657 1.386719 1.386719.0625.050781.132812.097657.199219.148438.191406.152343.386719.300781.589843.4375.058594.039062.125.074219.1875.113281.214844.136719.429688.273438.65625.394531.046876.023438.09375.042969.140626.066407.242187.128906.492187.246093.746093.355468.035157.011719.070313.019532.101563.035156.269531.109376.542968.207032.820312.292969.039063.011719.078125.019531.113282.03125.277343.078125.550781.152344.835937.207031.085937.019532.171875.027344.257813.039063.238281.042969.472656.082031.714843.109375.296875.027344.597657.042969.902344.042969.03125 0 .066406.007812.097656.007812h.003907 111.554687c5.539063 0 10.03125-4.492187 10.03125-10.03125v-111.417969l7.039063-4.40625c23.035156-14.421874 36.789062-39.257812 36.789062-66.4375v-46.539062c0-22.449219-6.429688-44.292969-18.589844-63.164062zm-214.308594 63.757812-55.132812-38.105469c-.03125-.019531-.058594-.039062-.085938-.058593-5.046874-3.414063-11.199218-12.035157-6.894531-16.34375 4.3125-4.3125 11.570313-2.09375 16.035157.8125l39.402343 27.070312c.054688.035156.109375.074219.167969.109375 2.0625 1.359375 4.25 2.410156 6.507812 3.195313zm-200.019531-97.875c.15625-15.773438 13.03125-28.558594 28.839844-28.558594h.957031c12.824219 0 23.710938 8.410156 27.457032 20.003906-11.410157-1.34375-22.292969 2.835938-33.742188 7.238282-2.070312.796875-4.183594 1.609375-6.351562 2.410156-2.40625.886719-8.042969.976562-17.160157-.925781zm-.007812 20.582031c4.507812.769531 8.585937 1.167969 12.238281 1.167969 4.605469 0 8.546875-.613281 11.867188-1.835938 2.257812-.832031 4.460937-1.679687 6.613281-2.507812 10.679687-4.109375 19.117187-7.351562 26.011719-5.730469.632812.148438 1.273437.253907 1.925781.316407v18.914062c0 15.359375-12.066407 27.949219-27.21875 28.796875h-4.21875c-15.152344-.847656-27.21875-13.4375-27.21875-28.796875zm116.691406 163.527344h-19.976563v-64.457031c0-5.539063-4.488281-10.027344-10.027343-10.027344h-20.09375c-5.539063 0-10.027344 4.488281-10.027344 10.027344 0 5.539062 4.488281 10.027344 10.027344 10.027344h10.066406v53.59375h-94.664063v-53.660157l8.445313-.054687c5.539063-.039063 10-4.558594 9.960937-10.097656-.035156-5.539063-4.585937-9.988282-10.09375-9.960938l-18.410156.125c-5.511718.035156-9.960937 4.515625-9.960937 10.027344v64.457031h-20.953125v-32.4375c0-18.585937 5.320312-36.671875 15.390625-52.296875 7.914062-12.28125 21.359375-19.609375 35.96875-19.609375h34.578125c.640625.023437 1.28125.046875 1.929687.046875h.953125c.648438 0 1.289063-.023438 1.929688-.046875h33.597656c14.609375 0 28.058594 7.328125 35.96875 19.609375 10.070312 15.625 15.394531 33.710938 15.394531 52.296875v32.4375zm179.273437-238.273437c.15625-15.773438 13.03125-28.558594 28.839844-28.558594h.957032c12.824218 0 23.710937 8.410156 27.457031 20.003906-11.410157-1.339844-22.292969 2.835938-33.742188 7.238281-2.066406.796875-4.183593 1.609375-6.351562 2.410157-2.40625.886718-8.042969.976562-17.160157-.921876zm-.007812 20.585937c4.503906.769531 8.585938 1.167969 12.234375 1.167969 4.605469 0 8.546875-.613282 11.867187-1.839844 2.261719-.832031 4.464844-1.679688 6.621094-2.507812 10.675782-4.105469 19.109375-7.347657 26.003906-5.730469.632813.148437 1.277344.253906 1.925782.320312v18.910157c0 14.566406-10.855469 26.640624-24.898438 28.574218h-8.855468c-14.042969-1.933594-24.898438-14.007812-24.898438-28.574218zm-18.40625 303.835937.03125-120.253906h91.457031v166.050782h-34.933593v-132.292969c0-5.539063-4.492188-10.027344-10.03125-10.027344-5.539063 0-10.027344 4.488281-10.027344 10.027344v132.292969h-36.503906zm111.546875-79.453124v-40.800782h23.441406c-1.710937 16.332032-10.144531 31.050782-23.441406 40.800782zm23.550781-60.855469h-23.550781v-47.15625c0-5.539063-4.492187-10.027344-10.03125-10.027344-2.851563 0-5.421875 1.195313-7.246094 3.105469-1.851562 1.820312-3 4.347656-3 7.148437v46.929688h-91.238281l.011719-39.929688c.0625-6.902343-3.980469-13.117187-10.328125-15.847656-6.289063-2.710937-13.511719-1.425781-18.476563 3.265625l-27.847656 24.859375c-.109375.09375-.210937.191406-.316406.292969-.175781.171875-.359375.328125-.542969.484375v-28.464844c3.945312-1.472656 7.5625-3.789063 10.613281-6.839844l29.636719-29.636719c8.082031-8.082031 18.828125-12.53125 30.257812-12.53125h23.054688v36.472657c0 5.539062 4.488281 10.03125 10.027344 10.03125 5.539062 0 10.03125-4.492188 10.03125-10.03125v-36.472657h27.582031c14.609375 0 28.054687 7.328126 35.96875 19.609376 10.070313 15.625 15.394531 33.710937 15.394531 52.296874zm0 0"/><path d="m408.949219 195.941406-.253907-.195312c-4.410156-3.355469-10.699218-2.5-14.054687 1.910156-3.355469 4.40625-2.5 10.699219 1.90625 14.054688l.257813.191406c1.8125 1.382812 3.949218 2.050781 6.0625 2.050781 3.027343 0 6.015624-1.363281 7.988281-3.957031 3.359375-4.40625 2.503906-10.699219-1.90625-14.054688zm0 0"/><path d="m113.601562 214.996094-.257812-.195313c-4.410156-3.351562-10.699219-2.5-14.054688 1.910157-3.351562 4.40625-2.5 10.699218 1.90625 14.054687l.257813.195313c1.816406 1.378906 3.949219 2.046874 6.066406 2.046874 3.023438 0 6.015625-1.363281 7.988281-3.957031 3.355469-4.40625 2.5-10.699219-1.90625-14.054687zm0 0"/></svg>